<?xml version="1.0" standalone="no"?>
<!DOCTYPE svg PUBLIC "-//W3C//DTD SVG 20010904//EN"
 "http://www.w3.org/TR/2001/REC-SVG-20010904/DTD/svg10.dtd">
<svg version="1.0" xmlns="http://www.w3.org/2000/svg"
 width="1080.000000pt" height="1080.000000pt" viewBox="0 0 1080.000000 1080.000000"
 preserveAspectRatio="xMidYMid meet">

<g transform="translate(0.000000,1080.000000) scale(0.100000,-0.100000)"
fill="#000000" stroke="none">
<path d="M5280 8225 c0 -57 3 -75 14 -75 9 0 15 17 18 55 3 30 7 57 10 60 3 3
34 3 69 -1 l64 -6 -5 -187 -5 -186 -54 -5 c-85 -8 -74 -26 21 -33 137 -11 178
-9 178 8 0 11 -12 15 -49 15 -28 0 -53 5 -56 11 -4 5 -4 93 0 195 l8 184 68 0
69 0 0 -60 c0 -45 4 -60 14 -60 19 0 26 22 26 86 0 35 -4 56 -12 58 -7 3 -95
7 -195 10 l-183 6 0 -75z"/>
<path d="M5780 8090 c0 -6 14 -13 31 -17 30 -6 31 -7 26 -47 -4 -23 -14 -74
-23 -114 l-17 -74 -43 7 c-34 5 -44 3 -44 -8 0 -9 33 -21 108 -36 59 -13 117
-25 130 -28 15 -4 22 -1 22 10 0 11 -17 19 -57 27 -32 6 -63 13 -69 15 -9 3
-8 22 2 72 26 125 40 141 132 150 l55 6 -7 -37 c-6 -33 -5 -37 10 -34 21 4 40
66 26 80 -19 19 -96 21 -136 4 -48 -20 -46 -21 -46 9 0 23 -3 25 -50 25 -27 0
-50 -5 -50 -10z"/>
<path d="M4531 8005 c-51 -30 -70 -51 -71 -81 0 -23 22 -48 33 -37 4 3 7 21 7
39 0 28 5 35 43 53 67 32 98 27 123 -21 9 -16 14 -31 12 -33 -2 -1 -35 -19
-74 -38 -83 -42 -98 -57 -98 -104 0 -42 40 -83 80 -83 34 0 98 34 122 65 20
25 22 25 44 11 19 -12 28 -13 47 -3 27 14 49 43 39 53 -4 3 -19 -3 -34 -15
-15 -12 -31 -18 -35 -14 -4 4 -19 41 -33 81 -14 41 -31 83 -37 95 -31 61 -96
73 -168 32z m178 -154 c11 -33 9 -37 -21 -68 -18 -19 -49 -39 -70 -45 -33 -10
-41 -9 -58 7 -22 20 -25 52 -7 76 16 21 130 79 138 71 4 -4 11 -22 18 -41z"/>
<path d="M6225 7968 c-19 -17 -26 -30 -22 -41 9 -24 24 -21 43 8 19 29 48 32
99 11 42 -18 59 -48 50 -93 -4 -25 -10 -33 -21 -29 -52 20 -143 37 -171 31
-43 -8 -65 -42 -61 -92 3 -34 8 -41 48 -61 34 -18 57 -22 92 -19 42 4 47 2 52
-19 9 -36 93 -48 104 -15 4 11 -2 12 -23 7 -53 -13 -56 6 -19 99 37 92 43 154
18 180 -25 25 -70 45 -117 51 -37 5 -48 2 -72 -18z m87 -154 c32 -9 58 -22 58
-28 0 -6 -9 -26 -20 -43 -18 -31 -24 -33 -74 -33 -88 0 -133 53 -86 100 24 24
46 25 122 4z"/>
<path d="M4232 7878 c-18 -13 -40 -40 -50 -60 -18 -40 -29 -47 -38 -23 -9 21
-22 19 -61 -11 -41 -31 -32 -57 10 -29 24 15 25 15 45 -17 42 -71 92 -165 92
-175 0 -6 -13 -16 -30 -23 -28 -11 -42 -40 -20 -40 5 0 59 28 120 61 80 44
108 65 100 73 -7 7 -27 1 -69 -22 -67 -36 -59 -40 -115 60 -28 51 -35 74 -30
95 6 27 70 103 86 103 5 0 14 -11 20 -25 13 -29 38 -34 38 -7 0 25 -28 62 -48
62 -10 0 -32 -10 -50 -22z"/>
<path d="M6847 7853 c-4 -3 6 -14 23 -24 l30 -18 -36 -61 c-20 -33 -38 -60
-40 -60 -2 0 -10 13 -19 30 -19 37 -92 80 -136 80 -75 0 -159 -88 -159 -167 0
-81 50 -135 138 -149 32 -5 42 -11 42 -26 0 -17 50 -48 80 -48 20 0 10 21 -16
32 -15 7 -24 18 -21 27 2 9 50 88 106 175 55 87 101 164 101 171 0 6 -16 19
-35 28 -39 19 -48 20 -58 10z m-121 -99 c31 -15 74 -68 74 -92 0 -26 -84 -143
-106 -148 -59 -15 -131 26 -148 83 -11 35 11 96 46 130 50 47 79 53 134 27z"/>
<path d="M3816 7596 c-30 -25 -60 -46 -65 -46 -5 0 -21 16 -35 35 -15 19 -31
35 -37 35 -17 0 -9 -33 17 -68 l27 -34 -29 -23 c-36 -29 -24 -45 15 -22 16 9
32 17 35 17 3 0 35 -36 72 -80 66 -80 94 -98 134 -85 49 16 130 111 115 135
-10 16 -23 11 -30 -10 -16 -51 -86 -107 -119 -94 -8 3 -44 41 -80 84 l-66 79
53 42 c28 24 56 46 62 51 5 5 5 12 -2 19 -7 7 -27 -3 -67 -35z"/>
<path d="M6951 7509 c-103 -63 -115 -173 -28 -256 57 -54 147 -84 147 -48 0
10 -14 17 -40 21 -54 9 -118 66 -129 115 -8 35 6 90 26 102 4 3 51 -33 103
-79 52 -46 100 -84 106 -84 25 0 54 52 54 95 0 55 -32 102 -89 132 -55 28
-106 29 -150 2z m138 -30 c47 -28 70 -59 71 -92 0 -24 -12 -60 -26 -76 -6 -7
-172 144 -173 157 -1 15 33 30 69 31 14 1 40 -8 59 -20z"/>
<path d="M3511 7324 c-12 -19 -21 -39 -21 -45 0 -18 29 -9 35 11 3 11 9 20 13
20 12 0 137 -112 146 -131 14 -29 -2 -85 -34 -120 -47 -50 -81 -35 -230 99
-34 31 -44 28 -65 -18 -20 -45 -11 -68 12 -32 9 12 19 22 24 22 5 0 28 -17 52
-39 66 -61 117 -91 152 -91 57 0 115 65 115 129 0 28 2 30 28 25 23 -4 31 1
50 32 16 24 20 40 14 46 -7 7 -16 1 -27 -16 -10 -14 -22 -26 -27 -26 -5 0 -54
38 -108 85 -54 47 -101 85 -103 85 -3 0 -14 -16 -26 -36z"/>
<path d="M5135 7323 c-101 -9 -269 -36 -359 -59 -528 -133 -892 -495 -1033
-1026 -25 -94 -27 -118 -27 -283 0 -162 3 -190 26 -276 71 -262 207 -469 387
-587 217 -144 466 -93 568 116 24 48 28 69 28 137 -1 106 -15 132 -163 288
-165 175 -201 252 -202 428 0 256 187 480 501 598 162 61 252 76 474 76 245 0
343 -18 525 -95 107 -46 204 -112 290 -200 152 -154 219 -324 220 -554 0 -174
-50 -316 -149 -427 -100 -111 -207 -159 -360 -159 -279 0 -485 250 -442 536 8
56 25 104 58 173 42 86 47 103 47 166 0 86 -22 136 -76 176 -62 44 -121 51
-406 47 -284 -5 -322 -12 -382 -70 -43 -41 -60 -86 -60 -160 0 -81 26 -133 99
-200 91 -84 101 -104 113 -219 6 -62 8 -352 5 -752 -4 -552 -7 -664 -21 -727
-27 -128 -55 -184 -164 -334 -91 -126 -105 -161 -92 -239 12 -75 24 -101 70
-151 74 -80 177 -109 284 -81 33 9 76 28 97 44 22 15 157 142 301 281 494 477
482 462 482 587 -1 142 -79 234 -214 248 -30 3 -72 8 -92 11 l-38 6 0 109 0
109 68 -26 c326 -127 616 -121 910 16 239 112 432 330 531 598 150 406 97 881
-137 1237 -63 95 -249 280 -347 344 -246 161 -555 262 -890 291 -112 9 -340
11 -430 3z"/>
<path d="M7330 7236 c0 -7 7 -19 15 -26 8 -7 15 -16 15 -20 0 -4 -43 -39 -95
-78 l-95 -71 -22 30 c-19 26 -48 40 -48 23 0 -17 148 -204 161 -204 17 0 9 22
-26 67 -19 25 -35 50 -35 54 0 5 30 31 66 59 72 53 104 61 152 36 15 -8 36
-24 47 -36 l20 -22 -22 -15 c-27 -18 -30 -43 -5 -43 22 1 62 34 62 53 0 22
-76 87 -110 94 -34 6 -37 15 -15 33 14 12 12 17 -17 47 -34 36 -48 41 -48 19z"/>
<path d="M3143 7049 c-51 -33 -174 -232 -155 -251 7 -7 16 0 28 21 10 17 22
31 27 31 9 0 222 -119 299 -167 l38 -23 -20 -32 c-18 -30 -18 -48 0 -48 10 0
130 201 130 218 0 25 -22 10 -50 -34 -16 -26 -31 -52 -33 -58 -3 -7 -34 4 -81
29 -42 22 -76 40 -76 41 0 1 16 31 35 68 58 111 45 176 -41 212 -45 19 -63 17
-101 -7z m108 -36 c51 -30 51 -85 2 -167 -15 -25 -32 -46 -36 -46 -7 0 -134
71 -156 87 -2 1 11 25 29 53 57 88 101 108 161 73z"/>
<path d="M7530 6840 c-25 -25 -25 -57 0 -147 22 -81 19 -100 -18 -110 -48 -12
-92 40 -100 115 -4 42 -1 53 17 71 36 36 20 42 -37 16 -32 -15 -51 -29 -47
-36 4 -5 13 -8 21 -5 11 4 14 -4 14 -35 0 -66 55 -152 105 -165 16 -4 37 1 57
13 40 23 47 65 24 144 -24 78 -21 107 10 121 24 11 29 9 55 -19 15 -18 33 -51
39 -74 10 -38 9 -45 -10 -71 -12 -16 -19 -32 -16 -35 9 -9 52 6 77 27 l24 20
-22 6 c-17 5 -23 14 -23 35 0 39 -18 78 -54 117 -36 38 -84 44 -116 12z"/>
<path d="M3052 6538 c-118 -241 -198 -490 -238 -748 -26 -163 -26 -558 -1
-720 48 -310 157 -629 297 -870 205 -355 485 -654 820 -876 69 -46 103 -66
260 -151 45 -25 283 -123 353 -147 12 -4 17 -16 17 -40 0 -54 30 -64 284 -96
82 -11 151 -22 154 -25 3 -3 1 -10 -4 -15 -14 -14 -196 -129 -357 -226 -70
-42 -130 -81 -133 -86 -4 -6 0 -16 7 -23 19 -19 259 -154 286 -161 23 -6 154
71 329 194 166 117 216 158 258 215 16 20 36 37 45 37 9 0 46 -27 82 -59 111
-97 124 -102 439 -190 80 -23 199 -57 264 -76 65 -19 121 -33 124 -31 10 10
24 288 15 297 -12 12 -223 85 -400 139 -79 24 -143 46 -143 50 0 3 30 12 68
20 144 28 299 75 467 142 603 238 1109 729 1375 1333 280 637 278 1373 -5
2010 -36 79 -52 105 -66 105 -24 0 -24 -11 1 -60 38 -74 107 -256 139 -361
131 -444 133 -930 5 -1371 -229 -794 -842 -1424 -1639 -1686 -152 -50 -171
-49 -75 3 47 25 96 57 109 70 l24 23 -48 79 c-97 156 -125 193 -147 193 -62 0
-332 -191 -462 -328 -65 -68 -121 -92 -213 -92 -58 0 -65 4 -91 56 -27 52 -87
106 -159 142 -157 79 -424 124 -461 79 -5 -7 -20 -57 -32 -112 -13 -55 -25
-103 -29 -107 -9 -10 -196 62 -327 126 -421 204 -769 510 -1019 895 -71 110
-181 318 -216 409 -118 310 -166 539 -176 838 -14 444 74 835 278 1235 27 52
49 98 49 102 0 4 -8 7 -19 7 -14 0 -36 -35 -89 -142z"/>
</g>
</svg>
